<svg xmlns="http://www.w3.org/2000/svg" width="79" height="79" viewBox="0 0 79 79">
    <g fill="none" fill-rule="evenodd">
        <circle cx="39.5" cy="39.5" r="38.5" stroke="#FFF" stroke-width="2"/>
        <path fill="#FFF" fill-rule="nonzero" d="M35.361 16c-5.451 0-8.954 2.518-10.048 5.22C21.018 22.135 18 26.83 18 31.999c0 2.127.617 4.257 1.686 6.621C18.813 39.687 18 41.026 18 43c0 2.587 1.694 5.08 4.713 6.469-.948 2.206-.745 4.333.385 5.847 1.173 1.573 3.144 2.391 5.261 2.553.642 1.686 1.798 2.857 3.078 3.414 1.459.635 2.951.717 3.924.717a4.593 4.593 0 0 0 3.641-1.79A4.63 4.63 0 0 0 42.631 62h.002c.92.007 2.406-.077 3.877-.71 1.269-.548 2.423-1.699 3.084-3.34 1.598-.052 3.252-.29 4.654-1.079C55.823 55.984 57 54.304 57 52c0-.9-.325-1.732-.709-2.568 1.284-.639 2.296-1.456 2.85-2.465C59.839 45.695 60 44.3 60 43c0-1.993-.941-3.192-1.855-4.172 1.084-2.364 1.89-4.65 1.855-6.846-.093-5.834-4.025-9.93-8.29-10.777C50.76 18.707 48.06 16 42.64 16c-1.364 0-2.69.35-3.526 1.428-.04.053-.074.112-.113.168-.039-.056-.072-.115-.113-.168C38.05 16.35 36.725 16 35.36 16zm0 2c1.08 0 1.573.172 1.946.652.372.48.693 1.56.693 3.534v5.646a1 1 0 0 0 0 .326V32h-3v-5h-4.188c-.417-1.157-1.519-2-2.812-2-1.645 0-3 1.355-3 3s1.355 3 3 3c1.293 0 2.395-.843 2.813-2H33v5h5v8h-7v6.188c-1.157.417-2 1.519-2 2.812 0 1.645 1.355 3 3 3s3-1.355 3-3c0-1.293-.843-2.395-2-2.813V44h5v6.832a1 1 0 0 0 0 .326v6.174C38 58.969 36.94 60 35.361 60c-.842 0-2.082-.097-3.125-.55-1.043-.455-1.889-1.166-2.265-2.69l-.188-.76H29c-1.834 0-3.466-.763-4.299-1.879-.832-1.116-1.053-2.574.158-4.61l.633-1.064-1.174-.394C21.267 47.027 20 44.976 20 43c0-1.72.638-2.587 1.541-3.574L21.93 39h3.258c.417 1.157 1.519 2 2.812 2 1.645 0 3-1.355 3-3s-1.355-3-3-3c-1.293 0-2.395.843-2.813 2h-4.054C20.375 35.153 20 33.561 20 31.998c0-4.59 2.875-8.607 6.121-9.006l.66-.08.18-.639C27.409 20.7 30.239 18 35.36 18zm7.278 0c5.122 0 6.876 2.433 7.4 4.273l.182.64.658.08c3.372.413 7.038 3.837 7.121 9.023.03 1.84-.723 4.084-1.902 6.552l-.303.635.492.498C57.33 40.76 58 41.321 58 43c0 1.127-.154 2.166-.613 3.004-.293.534-.736 1.005-1.387 1.412V43h-9v-3.188c1.157-.417 2-1.519 2-2.812 0-1.645-1.355-3-3-3s-3 1.355-3 3c0 1.293.843 2.395 2 2.813V45h9v3.857a1 1 0 0 0 .13.663c.52 1.057.87 1.955.87 2.48 0 1.696-.647 2.516-1.734 3.129-1.088.613-2.69.871-4.266.871h-.783l-.188.76c-.374 1.513-1.246 2.235-2.31 2.693-1.064.458-2.309.552-3.073.547C41.06 59.989 40 58.969 40 57.332V52h4.188c.417 1.157 1.519 2 2.812 2 1.645 0 3-1.355 3-3s-1.355-3-3-3c-1.293 0-2.395.843-2.813 2H40v-6.832a1 1 0 0 0 0-.326v-9.674a1 1 0 0 0 0-.326V29h8.188c.417 1.157 1.519 2 2.812 2 1.645 0 3-1.355 3-3s-1.355-3-3-3c-1.293 0-2.395.843-2.813 2H40v-4.814c0-1.975.32-3.053.693-3.534.373-.48.867-.652 1.946-.652zM28 27c.544 0 .958.409.988.943A.978.978 0 0 1 28 29c-.564 0-1-.436-1-1 0-.564.436-1 1-1zm23 0c.564 0 1 .436 1 1 0 .564-.436 1-1 1a.978.978 0 0 1-.988-.943A.978.978 0 0 1 51 27zm-5 9c.564 0 1 .436 1 1a.978.978 0 0 1-1.016.986 1 1 0 0 0-.043.002A.978.978 0 0 1 45 37c0-.564.436-1 1-1zm-18 1c.564 0 1 .436 1 1 0 .564-.436 1-1 1a.978.978 0 0 1-.988-.943A.978.978 0 0 1 28 37zm19 13c.564 0 1 .436 1 1 0 .564-.436 1-1 1a.978.978 0 0 1-.988-.943A.978.978 0 0 1 47 50zm-15.057.012A.978.978 0 0 1 33 51c0 .564-.436 1-1 1-.564 0-1-.436-1-1 0-.544.409-.958.943-.988z"/>
    </g>
</svg>
