<svg xmlns="http://www.w3.org/2000/svg" width="79" height="79" viewBox="0 0 79 79">
    <g fill="none" fill-rule="evenodd">
        <circle cx="39.5" cy="39.5" r="38.5" stroke="#FFF" stroke-width="2"/>
        <path fill="#FFF" fill-rule="nonzero" d="M42 14c-5.387 0-9.77 4.285-9.969 9.625l-5 2.281-11.593-5.812A.998.998 0 0 0 14 21v36a.994.994 0 0 0 .563.906l12 6c.277.133.597.133.875 0l11.593-5.812 12.563 5.812a.998.998 0 0 0 .875-.031l11-6c.324-.172.527-.508.531-.875V21a.997.997 0 0 0-1.469-.875l-10.687 5.813c.09-.653.156-1.297.156-1.938 0-5.512-4.488-10-10-10zm0 2c4.43 0 8 3.57 8 8 0 3.715-2.137 8.371-4.344 12.031-1.824 3.024-3.078 4.528-3.656 5.25-.57-.699-1.824-2.14-3.656-5.156-2.094-3.45-4.113-7.828-4.313-11.531a.988.988 0 0 0-.03-.782A7.988 7.988 0 0 1 42 16zm0 4c-2.75 0-5 2.25-5 5s2.25 5 5 5 5-2.25 5-5-2.25-5-5-5zm0 2c1.668 0 3 1.332 3 3s-1.332 3-3 3-3-1.332-3-3 1.332-3 3-3zm-26 .625l10.563 5.281a.996.996 0 0 0 .843 0l4.688-2.125c.496 4 2.566 8.086 4.562 11.375 2.293 3.778 4.594 6.5 4.594 6.5a.992.992 0 0 0 .773.34.99.99 0 0 0 .758-.371s2.27-2.766 4.563-6.563c1.625-2.695 3.265-5.902 4.094-9.124l.437.062c.207.02.414-.023.594-.125L62 22.687v33.72L51.97 61.874l-12.563-5.781a.996.996 0 0 0-.843 0L27 61.875l-11-5.5v-33.75z"/>
    </g>
</svg>
