<?xml version="1.0" encoding="UTF-8"?>
<svg width="143px" height="145px" viewBox="0 0 143 145" version="1.1" xmlns="http://www.w3.org/2000/svg" xmlns:xlink="http://www.w3.org/1999/xlink">
    <!-- Generator: Sketch 47.1 (45422) - http://www.bohemiancoding.com/sketch -->
    <title>Isotipo-Jooycar_w Copy</title>
    <desc>Created with Sketch.</desc>
    <defs></defs>
    <g id="Page-1" stroke="none" stroke-width="1" fill="none" fill-rule="evenodd">
        <g id="Desktop" transform="translate(-439.000000, -142.000000)" fill="#FFFFFF">
            <g id="Isotipo-Jooycar_w-Copy" transform="translate(439.000000, 142.000000)">
                <path d="M115.623451,116 L115.019616,116.605399 C114.905063,116.720288 114.79051,116.835288 114.674951,116.949296 C108.826485,122.713474 102.012866,127.174326 94.4231927,130.20782 C90.7748162,131.666241 86.9584658,132.780876 83.0799772,133.521102 C79.2357987,134.254608 75.2979661,134.626484 71.375668,134.626484 C67.4534816,134.626484 63.515649,134.254608 59.6714705,133.521102 C55.792982,132.780876 51.9766315,131.666241 48.3281432,130.20782 C40.7385813,127.174326 33.924963,122.713474 28.0764964,116.949296 L27.3753197,116.254563 L27.2674721,116.298734 C23.9264332,117.668703 21.3002056,120.327457 20,123.65594 L20.6343448,124.284361 C27.4841731,131.035727 35.4710387,136.263022 44.3730997,139.821063 C52.9710642,143.257495 62.0560749,145 71.3757797,145 C80.6953728,145 89.7802718,143.257495 98.378348,139.821063 C107.280409,136.263022 115.267163,131.035727 122.117103,124.284251 C122.193993,124.208576 122.269989,124.13224 122.346097,124.056015 L123,123.402589 L122.71792,122.662143 C121.63855,119.829898 119.420244,117.562626 116.587485,116.39688 L115.623451,116 Z" id="Fill-1"></path>
                <path d="M72.3156959,63.3185635 L42.0616571,3.99665964 C41.9116992,3.70259831 41.6810544,3.45821705 41.3969877,3.29231913 L36.1598763,0.234594923 C35.0810215,-0.395392945 33.7169919,0.309729042 33.5959615,1.55988041 L33.0080999,7.63268212 C32.9761798,7.96224515 33.0390224,8.29415263 33.189202,8.58866052 L63.4430192,67.9097829 C61.2123812,71.100471 60.7724824,75.3996387 62.6655211,79.1115767 C65.3811671,84.4362748 71.8678171,86.5353413 77.1541387,83.7999235 C82.4403495,81.0646173 84.5242437,74.5306283 81.8085977,69.2058185 C79.915559,65.4939921 76.1897752,63.3503811 72.3156959,63.3185635" id="Fill-4"></path>
                <path d="M142.999109,72.4395262 C142.989082,63.2939533 141.222086,54.3799988 137.747367,45.9454249 C134.149314,37.2114714 128.867714,29.3752173 122.049073,22.6538939 C115.220628,15.9226864 107.258565,10.7110003 98.3841488,7.1635833 C89.8128847,3.73730192 80.7560868,2 71.465435,2 C65.1770041,2 58.9960857,2.79699096 53,4.37384038 L57.9293152,13.8325208 C58.5502147,13.694033 59.1730081,13.5640017 59.7974727,13.4447331 C63.6296019,12.7134167 67.5550945,12.3425419 71.465435,12.3425419 C75.3756641,12.3425419 79.3012681,12.7134167 83.133286,13.4447331 C86.9995073,14.1827487 90.8041178,15.2940552 94.4412759,16.7479021 C102.007492,19.7723383 108.799951,24.2199806 114.630144,29.9670575 C120.460449,35.7142442 124.972303,42.409759 128.040368,49.8681096 C129.515464,53.4535256 130.642843,57.2038969 131.391309,61.0148909 C132.128188,64.7660309 132.504204,68.6105211 132.509106,72.4413932 L132.510109,73.2187257 L133.884599,73.5491854 C136.284192,74.126419 138.786619,74.1495918 141.196907,73.6171663 L143,73.2187257 L142.999109,72.4395262 Z" id="Fill-9"></path>
                <path d="M72,33.1209595 C77.5228075,33.1209595 82.8754611,34.2004586 87.9091178,36.3294428 C92.7757446,38.3879108 97.1485344,41.3367565 100.905869,45.0940827 C104.663203,48.8512975 107.611944,53.2240777 109.670528,58.0908055 C111.799629,63.1244511 112.87913,68.4772046 112.87913,74 C112.87913,79.5226839 111.799629,84.8753257 109.670528,89.909083 C107.612055,94.7756992 104.663315,99.1484794 100.905869,102.905806 C97.148646,106.66302 92.7758562,109.611866 87.9091178,111.670334 C82.8754611,113.79943 77.5229191,114.878929 72,114.878929 C66.4770809,114.878929 61.1245389,113.79943 56.0908822,111.670223 C51.2240322,109.611866 46.8512424,106.66302 43.0941311,102.905694 C39.3367966,99.1484794 36.3879445,94.7758107 34.3294719,89.909083 C32.2003715,84.8753257 31.12087,79.5226839 31.12087,74 C31.12087,73.8427892 31.1219858,73.6858016 31.123771,73.5289256 L31.1326971,72.7292594 C27.9320172,71.3075563 24.281015,71.2977376 21.0726362,72.7020348 L21.0104882,72.7292594 L21.0030126,73.5125239 C21.0014505,73.6748671 21,73.8372104 21,74 C21,80.8845821 22.3485121,87.5636411 25.0080466,93.8517372 C27.5768696,99.9248261 31.2539807,105.378891 35.9375107,110.06241 C40.6210407,114.745819 46.0751172,118.423145 52.1482194,120.991739 C58.4363293,123.651379 65.1154028,125 72,125 C78.8845972,125 85.5636707,123.651379 91.8517806,120.991739 C97.9249944,118.423145 103.378959,114.745819 108.062489,110.06241 C112.746019,105.378891 116.423242,99.9248261 118.991953,93.8517372 C121.651488,87.5636411 123,80.8845821 123,74 C123,67.1154179 121.651488,60.4362474 118.991953,54.1482628 C116.423242,48.0750623 112.746019,42.6211093 108.062489,37.9375896 C103.378959,33.2539582 97.9249944,29.5768552 91.8517806,27.0081494 C85.5636707,24.3486207 78.8845972,23 72,23 C69.0384282,23 66.1152387,23.2502653 63.2447132,23.7463328 L68.1527349,33.3003739 C69.4247056,33.1825495 70.7074992,33.1209595 72,33.1209595" id="Fill-12"></path>
                <path d="M20.96001,23.0726812 C14.1386951,29.8750324 8.85483691,37.8056815 5.25510403,46.6442369 C1.77852371,55.1807126 0.0106992277,64.2017606 0.000891602312,73.4569816 L0,74.2455231 L1.91404726,74.6507411 C4.11229276,75.1164196 6.383984,75.1164196 8.58211805,74.6507411 L10.4954966,74.2455231 L10.4964997,73.4587598 C10.501292,69.5815141 10.8774368,65.6903758 11.614569,61.8935958 C12.3634035,58.0370221 13.4911689,54.2415758 14.9667708,50.6131735 C18.0358888,43.0655144 22.5494026,36.2896146 28.3815962,30.4735238 C33.226006,25.6425818 38.7349937,21.7196574 44.7996727,18.7753246 C45.9527374,18.2155101 41.7887317,8.61330871 40.9426011,9.01208064 C33.5380668,12.5016685 26.8300968,17.2189137 20.96001,23.0726812" id="Fill-6"></path>
            </g>
        </g>
    </g>
</svg>