<?xml version="1.0" encoding="UTF-8"?>
<svg width="167px" height="28px" viewBox="0 0 167 28" version="1.1" xmlns="http://www.w3.org/2000/svg" xmlns:xlink="http://www.w3.org/1999/xlink">
    <!-- Generator: Sketch 47.1 (45422) - http://www.bohemiancoding.com/sketch -->
    <title>Jooycar_w@1x</title>
    <desc>Created with Sketch.</desc>
    <defs></defs>
    <g id="Page-1" stroke="none" stroke-width="1" fill="none" fill-rule="evenodd">
        <g id="Desktop" transform="translate(-40.000000, -54.000000)" fill="#FFFFFF">
            <g id="Jooycar_w" transform="translate(40.000000, 54.000000)">
                <polygon id="Fill-1" points="161.555242 5.33713627 160.760225 5.33713627 160.760225 4.69144417 163.039016 4.69144417 163.039016 5.33713627 162.243011 5.33713627 162.243011 9.48063949 161.555242 9.48063949"></polygon>
                <polygon id="Fill-2" points="166.316224 4.69147868 165.439116 7.22735847 165.426019 7.22735847 164.542387 4.69147868 163.881652 4.69147868 163.881652 9.4806247 164.569421 9.4806247 164.569421 6.5678611 164.583408 6.5678611 165.257141 8.62647306 165.601569 8.62647306 166.281776 6.5678611 166.295763 6.5678611 166.295763 9.4806247 166.983483 9.4806247 166.983483 4.69147868"></polygon>
                <path d="M92.5874095,2.7239667 C91.7936282,2.66273048 90.8754001,2.63171793 89.8583261,2.63171793 C89.0598496,2.63171793 88.3080778,2.66263187 87.6238671,2.72362157 C87.071912,2.77272888 86.66358,2.82134314 86.4072234,2.86833036 L81.7657206,11.879571 L81.5887371,12.2345636 L81.4117537,11.879571 L76.7715359,2.86926714 C76.5034661,2.82213202 76.0567818,2.77327123 75.4407747,2.72386809 C74.6777345,2.66273048 73.885337,2.63171793 73.0855261,2.63171793 C72.0685016,2.63171793 71.1262044,2.66277978 70.2848289,2.72406531 C69.7712755,2.76148745 69.3492038,2.79890958 69.0246436,2.83578937 L77.756831,17.738576 L77.7829757,17.7841827 L77.7829757,17.836692 L77.7829757,26.0133056 C78.4391636,26.1131473 79.0542317,26.1906047 79.6133036,26.2439029 C80.2593598,26.3047447 80.8454166,26.3356093 81.3551151,26.3356093 C81.8648629,26.3356093 82.4509692,26.3047447 83.0971242,26.2438536 C83.6578271,26.1904568 84.2889082,26.1123584 84.9749476,26.01158 L84.9749476,17.8364455 L84.9749476,17.7836896 L85.0013394,17.7380336 L93.7786993,2.83426093 C93.4702015,2.7980221 93.0768446,2.76168466 92.5874095,2.7239667" id="Fill-6"></path>
                <path d="M110.490131,20.4722261 C109.68943,20.7664755 108.97349,20.9873598 108.360004,21.1292582 C107.671444,21.2898924 106.85043,21.3713435 105.920242,21.3713435 C105.173462,21.3713435 104.456484,21.2725372 103.789225,21.0776364 C103.099825,20.8764739 102.487821,20.5371109 101.970215,20.0689644 C101.448457,19.5996839 101.024359,18.9509842 100.710227,18.1412066 C100.400049,17.3443468 100.242687,16.3373019 100.242687,15.1482246 C100.242687,12.8803149 100.77675,11.2480392 101.830002,10.2965604 C102.873072,9.35504114 104.202054,8.87762539 105.780029,8.87762539 C106.176944,8.87762539 106.567286,8.88556342 106.940182,8.90119296 C107.315747,8.91869606 107.699269,8.9593723 108.081209,9.02213696 C108.470464,9.08805712 108.881168,9.17641083 109.302943,9.2849301 C109.658788,9.37791844 110.049328,9.49595348 110.466507,9.63656999 C110.91067,8.75539947 111.246301,7.84686493 111.464998,6.93344925 C111.686462,6.00642551 111.781255,5.05967996 111.747005,4.11732252 C111.091459,3.87573033 110.488154,3.67017976 109.952014,3.50574916 C109.363486,3.32504806 108.782075,3.18763634 108.223942,3.09726114 C107.65889,3.00604777 107.081927,2.94461432 106.509165,2.91483439 C105.921082,2.88421628 105.298551,2.86868535 104.65892,2.86868535 C102.783172,2.86868535 101.099828,3.17323942 99.6556413,3.77381788 C98.2147659,4.37291719 96.9825046,5.21449618 95.993058,6.27533241 C95.0045504,7.33680959 94.2439813,8.63509642 93.7327014,10.1340034 C93.2181595,11.643708 92.9573054,13.3307611 92.9573054,15.1482246 C92.9573054,17.0276146 93.2180606,18.7374956 93.7324048,20.2303381 C94.2435859,21.7154398 95.0114696,23.0057886 96.0145569,24.0656387 C97.0180891,25.1260312 98.2717011,25.9515369 99.7407475,26.5192785 C101.21953,27.0911125 102.952792,27.3810231 104.892443,27.3810231 C106.050916,27.3810231 107.230295,27.303615 108.397861,27.1509682 C109.485561,27.0079357 110.701562,26.6837091 112.014136,26.1869167 C111.996393,24.9884223 111.844911,23.9041664 111.563547,22.9624006 C111.292017,22.0564299 110.931181,21.2194855 110.490131,20.4722261" id="Fill-8"></path>
                <path d="M128.323739,16.3457872 L128.323739,21.7458656 L128.323739,21.8992027 L128.174729,21.9369699 L128.058437,21.9665034 C127.796495,22.032818 127.399679,22.0968152 126.845203,22.1620944 C126.30684,22.2255494 125.884323,22.2577945 125.589367,22.2577945 C125.168235,22.2577945 124.705043,22.2254014 124.212593,22.1616014 C123.699139,22.0952375 123.210445,21.960291 122.760252,21.760509 C122.287868,21.5512113 121.889074,21.2416775 121.575041,20.8406345 C121.246527,20.4233209 121.079774,19.8564668 121.079774,19.1561453 C121.079774,18.1920445 121.51262,17.4333465 122.366302,16.9010548 C123.167052,16.4017478 124.157141,16.1485691 125.309041,16.1485691 L128.126047,16.1485691 L128.323739,16.1485691 L128.323739,16.3457872 Z M132.107952,5.15780091 C131.230646,4.38746696 130.151052,3.80833598 128.899219,3.43662914 C127.63078,3.05979463 126.187088,2.86869028 124.608273,2.86869028 C123.447972,2.86869028 122.123784,2.99249395 120.67253,3.23664997 C119.298326,3.4677403 117.896939,3.81282269 116.50519,4.26277581 C116.510775,4.76947844 116.533312,5.22865151 116.572257,5.62954663 C116.61738,6.09488276 116.693195,6.54892816 116.797625,6.97896226 C116.901611,7.40820748 117.051066,7.83301529 117.241838,8.24174983 C117.406466,8.59595355 117.599907,8.9862482 117.817813,9.40415338 C118.788479,9.07746157 119.747629,8.8316292 120.671294,8.67291792 C121.688615,8.49946459 122.588804,8.41155462 123.34705,8.41155462 C123.913832,8.41155462 124.481108,8.45193503 125.033014,8.53170975 C125.594112,8.61468927 126.113843,8.76556113 126.578468,8.98018374 C127.066865,9.20737901 127.473072,9.53357776 127.786265,9.9499545 C128.107959,10.3778192 128.288599,10.9129212 128.323195,11.5403707 L128.332141,11.7027798 L128.343558,11.9107956 L128.134746,11.9107956 L125.122173,11.9107956 C123.965825,11.9107956 122.761685,12.0263654 121.543213,12.2542509 C120.343472,12.4785372 119.233038,12.8804184 118.242702,13.4486531 C117.268033,14.0081116 116.459227,14.7701624 115.83892,15.7136045 C115.226175,16.6450657 114.915552,17.8503641 114.915552,19.2959236 C114.915552,20.7865474 115.17779,22.058407 115.694951,23.0760525 C116.209641,24.0887675 116.932797,24.9146676 117.844205,25.5307277 C118.768463,26.1554654 119.898468,26.6160683 121.202936,26.8997172 C122.529398,27.1881487 124.005165,27.3343859 125.589367,27.3343859 C127.422759,27.3343859 129.191259,27.1642853 130.845691,26.8288666 C132.386994,26.516128 133.73703,26.1980152 134.861698,25.8826141 L134.861698,12.4917508 C134.861698,10.804402 134.618537,9.33438747 134.138888,8.12267939 C133.662994,6.92236066 132.979673,5.92478214 132.107952,5.15780091 L132.107952,5.15780091 Z" id="Fill-10"></path>
                <path d="M156.709479,16.9733845 L156.636629,16.8344444 L156.755887,16.7323347 L156.849,16.6526586 C157.070315,16.4632799 157.350593,16.2146864 157.682171,15.9137809 C157.997489,15.6276174 158.305987,15.2382103 158.599164,14.7564557 C158.89323,14.2719894 159.1484,13.6793983 159.357608,12.9953473 C159.564492,12.3158816 159.669417,11.503195 159.669417,10.5801157 C159.669417,8.16128484 158.765669,6.25655231 156.983282,4.91872325 C155.169609,3.55841132 152.387792,2.86869028 148.715126,2.86869028 C147.332026,2.86869028 145.840344,2.93106051 144.281545,3.05407531 C142.836222,3.16801807 141.413633,3.31114912 140.050104,3.47986921 L140.050104,26.8344873 C140.733228,26.9574528 141.345874,27.0396435 141.873365,27.0790871 C142.484776,27.1248417 143.057735,27.1480148 143.576379,27.1480148 C144.064431,27.1480148 144.637489,27.1247924 145.279839,27.0789885 C145.83471,27.0394462 146.462628,26.9572556 147.148519,26.8343394 L147.148519,8.68282813 L147.148519,8.52081345 L147.307809,8.48935716 L147.432107,8.46485281 C147.767244,8.39853822 148.246152,8.36491254 148.855339,8.36491254 C150.010006,8.36491254 150.874314,8.66083831 151.424243,9.24455462 C151.967993,9.82176273 152.243773,10.569318 152.243773,11.4665125 C152.243773,12.3324479 152.023545,13.1519385 151.589266,13.9023534 C151.154443,14.6537051 150.356115,15.3635917 149.21662,16.012242 L148.84496,16.2242022 L153.818585,26.7744344 C154.302484,26.8759031 154.904554,26.9548397 155.610264,27.0092226 C156.41388,27.0703602 157.253625,27.1013727 158.105972,27.1013727 C158.802737,27.1013727 159.539731,27.0704095 160.296445,27.0093705 C160.857346,26.9634187 161.385479,26.8997665 161.870416,26.8197453 L156.709479,16.9733845 Z" id="Fill-12"></path>
                <path d="M35.4798147,17.8228769 C35.0664416,19.0973003 34.2399423,20.1440847 33.2122424,20.694767 C32.6846034,20.9774299 32.1220225,21.1207581 31.5400183,21.1207581 C31.5131817,21.1207581 31.4863945,21.1204623 31.4595579,21.1198707 C31.4326718,21.1204623 31.4053409,21.1207581 31.3775158,21.1207581 C30.8553134,21.1207581 30.0881216,21.0088862 29.5012246,20.6948163 C28.473327,20.143641 27.6468772,19.0969059 27.2336523,17.8228769 C26.7772811,16.4166131 26.6913841,14.6970191 27.0038358,13.2229616 C27.4814093,10.9700405 28.6707221,9.92374914 29.5842551,9.44268487 C30.1679891,9.13556696 30.9471906,9.02660395 31.4371199,9.02660395 L31.4818476,9.02660395 C32.0504581,9.02660395 32.6048843,9.16657951 33.1297061,9.44268487 C34.043338,9.92374914 35.2324531,10.9700898 35.7098784,13.2230109 C36.0222311,14.6969205 35.9361859,16.4165145 35.4798147,17.8228769 M40.0758485,6.14381751 C39.0718716,5.08303059 37.8182595,4.25747557 36.3499544,3.69012837 C35.1327671,3.21936874 33.740425,2.93843154 32.2115274,2.85520549 C31.9612004,2.84149883 31.7087976,2.83311706 31.4612877,2.83015879 C31.2228221,2.83296915 30.7549355,2.84135092 30.5018902,2.85520549 C28.9729926,2.93843154 27.5806505,3.21936874 26.3634632,3.69012837 C24.895158,4.25752488 23.6415954,5.08303059 22.6375691,6.14381751 C21.6347783,7.20282946 20.8668946,8.49298105 20.3551699,9.97857578 C19.8410234,11.4718127 19.580367,13.1817924 19.580367,15.0608865 C19.580367,16.8786459 19.8411716,18.5656003 20.3554664,20.0749598 C20.8671912,21.5742119 21.6277109,22.872548 22.6158724,23.9337787 C23.6056156,24.9947135 24.8380252,25.8364404 26.2786534,26.4354411 C27.5205028,26.9518074 28.9404723,27.2501984 30.4990731,27.3222817 C30.7489553,27.3339668 31.2114054,27.3398834 31.4599532,27.3404257 C31.7140364,27.3398834 31.9680701,27.3338189 32.2143445,27.3222817 C33.7730441,27.2501984 35.1929148,26.9518074 36.4347641,26.4354411 C37.8754418,25.8364897 39.1077526,24.9947628 40.097644,23.9337294 C41.0857561,22.872548 41.8462758,21.5742119 42.3579512,20.0749105 C42.8722459,18.5656003 43.1331,16.8785966 43.1331,15.0608865 C43.1331,13.1818417 42.8723942,11.471862 42.3583466,9.97852648 C41.8465229,8.49298105 41.0785898,7.20282946 40.0758485,6.14381751" id="Fill-14"></path>
                <path d="M61.9465569,17.8228769 C61.5331838,19.0973003 60.7066351,20.1440847 59.6789352,20.694767 C59.1512962,20.9774299 58.5887647,21.1207581 58.0067606,21.1207581 C57.9798745,21.1207581 57.9530873,21.1204623 57.9262506,21.1198707 C57.899414,21.1204623 57.8720337,21.1207581 57.844258,21.1207581 C57.3220062,21.1207581 56.5548144,21.0088862 55.9679668,20.6948163 C54.9400198,20.143641 54.1136194,19.0969059 53.700345,17.8228769 C53.2439739,16.4166624 53.1580769,14.6970684 53.470578,13.2229616 C53.9481515,10.9700405 55.1374149,9.92374914 56.0509479,9.44268487 C56.6346818,9.13556696 57.4139328,9.02660395 57.9038126,9.02660395 L57.9485404,9.02660395 C58.5172003,9.02660395 59.0716265,9.16657951 59.5963989,9.44268487 C60.5100307,9.92374914 61.6991953,10.9700898 62.1765711,13.2230109 C62.4889239,14.6969698 62.4028786,16.4165145 61.9465569,17.8228769 M66.5425907,6.14381751 C65.5385643,5.08303059 64.2850017,4.25747557 62.8166966,3.69012837 C61.5995093,3.21936874 60.2071178,2.93843154 58.6782696,2.85520549 C58.4278931,2.84149883 58.1754904,2.83311706 57.9280299,2.83015879 C57.6895643,2.83296915 57.2216777,2.84135092 56.9686324,2.85520549 C55.4397348,2.93843154 54.0473433,3.21936874 52.8302054,3.69012837 C51.3618508,4.25752488 50.1083376,5.08303059 49.1043113,6.14381751 C48.1015205,7.20282946 47.3335874,8.49298105 46.8219121,9.97857578 C46.3077656,11.4718127 46.0471092,13.1817924 46.0471092,15.0608865 C46.0471092,16.8785966 46.3078644,18.5656003 46.8222086,20.0749598 C47.333884,21.5742119 48.0944036,22.872548 49.0825652,23.9337787 C50.0723083,24.9947135 51.3047179,25.8364404 52.7453462,26.4354411 C53.9871956,26.9518074 55.4071651,27.2501984 56.9657659,27.3222817 C57.2156975,27.3339668 57.6780982,27.3398834 57.926646,27.3404257 C58.1807292,27.3398834 58.4348123,27.3338189 58.6810867,27.3222817 C60.2397369,27.2501984 61.659657,26.9518074 62.9015063,26.4354411 C64.3421346,25.8364897 65.5744948,24.9947628 66.5643862,23.9337294 C67.5524489,22.872548 68.3129686,21.5742119 68.8246934,20.0749105 C69.3389881,18.5656003 69.5997928,16.8785966 69.5997928,15.0608865 C69.5997928,13.1818417 69.339087,11.471862 68.8250393,9.97852648 C68.3132651,8.49298105 67.545332,7.20282946 66.5425907,6.14381751" id="Fill-16"></path>
                <path d="M2.5038781,6.61827991 L7.46455404,6.61827991 L7.66224566,6.61827991 L7.66224566,6.81549802 L7.66224566,17.4798702 C7.66224566,18.3717398 7.52257653,19.0859159 7.24714268,19.602578 C6.96948479,20.1193881 6.62337618,20.5153035 6.2180095,20.7798716 C5.8138784,21.0424182 5.36106573,21.2020169 4.8718778,21.2544276 C4.42380974,21.3021051 4.00228177,21.3263136 3.61895771,21.3263136 C2.9800678,21.3263136 2.36331935,21.2776501 1.78591154,21.1817528 C1.37649219,21.1136632 1.06201423,21.0579491 0.815097396,21.0095814 C0.274114265,22.6418078 1.48268717e-05,24.3072161 1.48268717e-05,25.9627142 C1.48268717e-05,26.2371432 0.00762595442,26.4963371 0.0226505179,26.7331961 C0.0326833679,26.8987114 0.0465712045,27.064917 0.0640669133,27.2292983 C0.709678337,27.4127111 1.43579967,27.567478 2.22478695,27.6896546 C3.10589852,27.826031 3.99966236,27.8952052 4.88111989,27.8952052 C6.33573486,27.8952052 7.71082838,27.7191387 8.96829538,27.3719856 C10.2088598,27.0292698 11.3057023,26.478834 12.228082,25.736012 C13.1452229,24.9982684 13.8814265,24.0152347 14.4164789,22.8141271 C14.9549414,21.6048842 15.2279536,20.1237762 15.2279536,18.4120216 L15.2279536,0.0492897366 L2.50382868,0.0492897366 C2.26827911,1.21815218 2.14892279,2.30659894 2.14892279,3.28687157 C2.14892279,4.32512632 2.26827911,5.44507867 2.5038781,6.61827991" id="Fill-3"></path>
            </g>
        </g>
    </g>
</svg>