<svg xmlns="http://www.w3.org/2000/svg" width="176" height="40" viewBox="0 0 176 40">
    <g fill="#676666" fill-rule="nonzero">
        <path d="M0 38.382v1.43c7.682-3 35.39-5.518 54.049-2.594 0 0-8.812-2.524-23.451-2.447-8.14-.035-16.265.66-24.277 2.076-2.142.36-4.255.872-6.321 1.535M166.873 13.094c2.973 0 5.09 2.877 5.09 5.73 0 2.664-2.212 6.058-5.09 6.058-2.878 0-5.096-3.394-5.096-6.058 0-2.853 2.123-5.73 5.096-5.73m0 15.182c5.066 0 8.592-4.258 8.592-9.311 0-4.936-3.526-9.26-8.592-9.26-5.066 0-8.592 4.324-8.592 9.26 0 5.053 3.52 9.311 8.592 9.311M57.022 10.735a7.992 7.992 0 0 0-3.871-1.03c-5.09 0-8.556 4.413-8.556 9.424 0 4.865 3.615 9.142 8.502 9.142a8.952 8.952 0 0 0 3.937-1.053V23.1a5.265 5.265 0 0 1-3.848 1.87c-3.157 0-5.09-2.94-5.09-5.94 0-3 1.85-6.054 5.102-6.054 1.495.025 2.9.714 3.824 1.877v-4.118zM66.434 13.094c2.973 0 5.09 2.877 5.09 5.73 0 2.664-2.212 6.058-5.09 6.058-2.878 0-5.09-3.394-5.09-6.058 0-2.853 2.117-5.73 5.09-5.73m0 15.182c5.066 0 8.592-4.258 8.592-9.311 0-4.936-3.526-9.26-8.592-9.26-5.066 0-8.592 4.324-8.592 9.26 0 5.053 3.526 9.311 8.592 9.311M77.375 27.806h3.383V15.829h.047l9.145 12.33h2.438V10.176h-3.383V22.03h-.042l-9.15-12.323h-2.438zM104.892 11.67a7.067 7.067 0 0 0-4.756-1.964c-2.926 0-5.066 2.353-5.066 5.294 0 2.735 1.635 3.876 3.87 4.818 1.356.535 3.015 1.047 3.015 2.87 0 1.36-.85 2.547-2.236 2.547-1.385 0-2.67-1.211-3.133-2.564l-2.188 2.17c1.189 2.035 2.973 3.441 5.351 3.441 3.568 0 5.714-2.506 5.714-6.035 0-5.918-6.885-4.706-6.885-7.647a2.077 2.077 0 0 1 2.117-1.988 3.117 3.117 0 0 1 2.604 1.447l1.593-2.388zM115.69 13.094c2.973 0 5.09 2.877 5.09 5.73 0 2.664-2.212 6.058-5.09 6.058-2.878 0-5.095-3.394-5.095-6.058 0-2.853 2.116-5.73 5.09-5.73m0 15.182c5.065 0 8.591-4.258 8.591-9.311 0-4.936-3.526-9.26-8.592-9.26-5.066 0-8.592 4.324-8.592 9.26 0 5.053 3.526 9.311 8.592 9.311M130.014 12.982h.458c1.784 0 3.157.418 3.157 2.594 0 2.177-1.314 2.712-3.18 2.712h-.435v-5.306zm3.455 7.389c2.325-.4 3.567-2.642 3.567-4.889 0-3.764-2.378-5.294-5.803-5.294h-4.584v17.647h3.389v-7.14h.047l4.216 7.11h4.097l-4.93-7.434zM150.92 10.735a7.992 7.992 0 0 0-3.87-1.03c-5.09 0-8.569 4.419-8.569 9.413 0 4.864 3.615 9.147 8.503 9.147a8.957 8.957 0 0 0 3.936-1.06v-4.117a5.265 5.265 0 0 1-3.847 1.87c-3.157 0-5.09-2.94-5.09-5.94 0-3 1.861-6.083 5.114-6.083 1.495.024 2.9.714 3.823 1.877v-4.077zM152.983 10.176h3.389v17.629h-3.389zM35.313 2.588c-7.42-1.176-15.834 4.518-16.619 6.824 5.59-3.612 12.26-3.641 15.234-3.953.095-.1.178-.1.22-.03l-.22.03s.666-1.518 1.385-2.847M36.217 6.306c-6.273.906-2.718 20.547.208 23.918-.291-2.942-.404-12.248-.482-13.453v-.03c0-.194.078-1.535.095-1.723 0 0-.261-1.342-.261-1.436L36.038 15c.16-2.035.179-8.712.179-8.712M29.902 10.659c-9.174.053-13.277 3.741-13.473 3.882 1.016.741 2.711.659 4.46.059 2.798-.921 5.746-1.32 8.692-1.176 0 0 .333-2.753.321-2.753M13.58 29.659c.316.553 2.123 1.176 4.757.682 1.433-.365 6.79-1.365 10.364-.459.077-1.017.107-3.764.107-3.764a25.08 25.08 0 0 0-15.222 3.53M29.545 17.494c-9.43.07-14.995 4.17-15.191 4.3.677.941 2.021 1.306 4.465.541 2.123-.411 4.995-1.717 10.34-1.064 0 0 .404-3.777.386-3.777"/>
        <path d="M36.217 6.306c-6.273.906-2.718 20.541.208 23.918-.291-2.942-.404-12.248-.482-13.46 0-.193.078-1.535.095-1.723 0 0-.261-1.347-.261-1.435l.261 1.418c.16-2.036.179-8.712.179-8.712M29.902 10.659c-9.174.053-13.277 3.741-13.473 3.888 1.016.735 2.711.653 4.46.053 2.798-.921 5.746-1.32 8.692-1.176 0 0 .333-2.753.321-2.753M13.58 29.659c.316.553 2.123 1.176 4.757.682 1.433-.365 6.79-1.359 10.364-.459.077-1.017.107-3.764.107-3.764a25.129 25.129 0 0 0-15.222 3.53M29.545 17.494c-9.43.07-14.995 4.17-15.191 4.3.677.941 2.021 1.312 4.465.541 2.123-.411 4.995-1.717 10.334-1.064 0 0 .41-3.777.392-3.777"/>
        <path d="M37.09.688c-3.484-.182-5.785-.24-9.65.912-4.958 1.23-9.109 4.53-9.995 6.635 3.568-4.164 9.104-6.723 18.046-6.706-1.076 1.353-1.278 2.295-1.563 3.93-5.191.194-9.353.859-14.074 3.141-1.44.706-2.74 1.66-3.842 2.818a25.98 25.98 0 0 1 9.377-4 41.456 41.456 0 0 1 10.483-.947c-.595 8.694-.196 20.823.993 27.058a257.747 257.747 0 0 1-.083-27.988l-2.605-.117L35.925 2.3a3.809 3.809 0 0 1 1.19-1.594"/>
        <path d="M29.593 10.959l-.35 4.847 1.462-5.682c-5.726-.983-14.615 3.629-15.46 5.294 2.01-1.636 9.883-4.918 14.354-4.453M28.992 18.006v5.782l.976-6.623c-10.53 0-15.46 3.988-17.047 5.717 3.847-2.882 10.268-4.988 16.071-4.876M11.458 30.876s8.063-5.464 16.797-4.705a41.151 41.151 0 0 0 .137 4.417c.078.895.253 1.778.523 2.636l.321-7.895c-8.164-1.088-16.619 3.806-17.778 5.524"/>
    </g>
</svg>
