<svg xmlns="http://www.w3.org/2000/svg" width="79" height="79" viewBox="0 0 79 79">
    <g fill="none" fill-rule="evenodd">
        <path fill="#FFF" fill-rule="nonzero" d="M21 15c-3.3 0-6 2.7-6 6s2.7 6 6 6a5.934 5.934 0 0 0 3.469-1.125l7.781 7.813a9.922 9.922 0 0 0-.656 11.687l-6.563 5.188A5.986 5.986 0 0 0 21 49c-3.3 0-6 2.7-6 6s2.7 6 6 6 6-2.7 6-6a5.881 5.881 0 0 0-.75-2.875l6.594-5.188C34.664 48.813 37.187 50 40 50c1.328 0 2.59-.246 3.75-.719l2.625 4.969C44.941 55.348 44 57.063 44 59c0 3.3 2.7 6 6 6s6-2.7 6-6-2.7-6-6-6c-.652 0-1.285.117-1.875.313l-2.625-4.97a10.059 10.059 0 0 0 4.031-5.312L53 43.75c-.004.082 0 .168 0 .25 0 3.3 2.7 6 6 6s6-2.7 6-6-2.7-6-6-6a6.013 6.013 0 0 0-5.594 3.813l-3.468-.75c.035-.348.062-.708.062-1.063 0-3.934-2.309-7.34-5.625-8.969l1.531-4.125c.352.063.727.094 1.094.094 3.3 0 6-2.7 6-6s-2.7-6-6-6-6 2.7-6 6c0 2.215 1.234 4.148 3.031 5.188L42.5 30.343A9.8 9.8 0 0 0 40 30c-2.395 0-4.59.84-6.313 2.25l-7.812-7.781A5.934 5.934 0 0 0 27 21c0-3.3-2.7-6-6-6zm0 2c2.223 0 4 1.777 4 4s-1.777 4-4 4-4-1.777-4-4 1.777-4 4-4zm26 0c2.223 0 4 1.777 4 4s-1.777 4-4 4-4-1.777-4-4 1.777-4 4-4zm-7 15c4.434 0 8 3.574 8 8 0 4.434-3.566 8-8 8-4.43 0-8-3.566-8-8 0-2.152.844-4.094 2.219-5.531a1.16 1.16 0 0 0 .218-.219A7.968 7.968 0 0 1 40 32zm19 8c2.223 0 4 1.777 4 4s-1.777 4-4 4-4-1.777-4-4 1.777-4 4-4zM21 51c2.223 0 4 1.777 4 4s-1.777 4-4 4-4-1.777-4-4 1.777-4 4-4zm29 4c2.223 0 4 1.777 4 4s-1.777 4-4 4-4-1.777-4-4c0-1.516.828-2.82 2.063-3.5.03-.008.062-.02.093-.031.012-.008.02-.024.032-.032A4.03 4.03 0 0 1 50 55z"/>
        <circle cx="39.5" cy="39.5" r="38.5" stroke="#FFF" stroke-width="2"/>
    </g>
</svg>
