<svg xmlns="http://www.w3.org/2000/svg" width="79" height="79" viewBox="0 0 79 79">
    <g fill="none" fill-rule="evenodd">
        <circle cx="39.5" cy="39.5" r="38.5" stroke="#FFF" stroke-width="2"/>
        <path fill="#FFF" fill-rule="nonzero" d="M24 18c-2.75 0-5 2.25-5 5v32c0 2.75 2.25 5 5 5h11v-2H24c-1.668 0-3-1.332-3-3V23c0-1.668 1.332-3 3-3h32c1.668 0 3 1.332 3 3v32c0 1.668-1.332 3-3 3H45v2h11c2.75 0 5-2.25 5-5V23c0-2.75-2.25-5-5-5H24zm16 7c-7.683 0-13.979 6.295-13.979 13.979 0 6.28 4.184 11.673 9.979 13.376V53c0 .876.392 1.662 1 2.213V61h2v-5h2v5h2v-5.787c.608-.55 1-1.337 1-2.213v-.645c5.795-1.703 9.979-7.096 9.979-13.376C53.979 31.295 47.683 25 40 25zm0 2c6.593 0 11.979 5.386 11.979 11.979 0 5.183-3.326 9.635-7.979 11.265 0-1.721 0-3.286.002-4.392C46.372 44.462 48 41.937 48 39c0-4.406-3.594-8-8-8-4.174 0-7.621 3.219-7.97 7.31-.02.227-.03.457-.03.69 0 2.938 1.627 5.464 4 6.854v4.392c-4.653-1.63-7.979-6.084-7.979-11.267C28.021 32.386 33.407 27 40 27zm0 6c3.326 0 6 2.674 6 6a5.993 5.993 0 0 1-3.428 5.422l-.568.271-.002.631C42 46.624 42 53 42 53c0 .565-.435 1-1 1h-2c-.565 0-1-.435-1-1v-8.307l-.57-.271a5.993 5.993 0 0 1-3.409-5.942A5.99 5.99 0 0 1 40 33z"/>
    </g>
</svg>
