<svg xmlns="http://www.w3.org/2000/svg" width="79" height="79" viewBox="0 0 79 79">
    <g fill="none" fill-rule="evenodd">
        <circle cx="39.5" cy="39.5" r="38.5" stroke="#FFF" stroke-width="2"/>
        <path fill="#FFF" fill-rule="nonzero" d="M47.534 16l-.815.326-2.935 1.141-.815.327.196.847.62 3.131c-.307.306-.633.664-.98 1.044l-3.097-.685-.848-.196-.326.783-1.272 2.935-.326.782.717.49 2.674 1.793c-.032.51-.028 1.023 0 1.533l-2.739 1.696-.75.456.326.815 1.142 2.935.326.816.848-.196 3.13-.62c.318.38.669.722 1.044 1.044l-.718 3.13-.195.848.815.359 2.935 1.24.782.325.49-.717 1.793-2.674c.51.032 1.023.028 1.533 0l1.696 2.772.456.717.815-.293 3.75-1.5-.195-.848-.717-3.424c.39-.33.745-.685 1.076-1.077l3.163.816.88.228.326-.815 1.272-2.935.359-.815-.783-.49-2.739-1.663c.033-.51.029-1.023 0-1.532l2.74-1.696.75-.457-.327-.815-1.141-2.935-.326-.815-.88.195-3.196.718A9.01 9.01 0 0 0 57.024 22l.685-3.13.195-.848-.782-.326-2.935-1.272-.815-.326-.49.75-1.663 2.641c-.48-.049-1.002-.004-1.532.033L47.99 16.75l-.457-.75zm-.88 2.576l1.533 2.511.39.62.718-.163c.738-.163 1.435-.074 2.38.032l.653.066.359-.555 1.5-2.38 1.304.554-.652 2.805-.163.684.587.392c.64.456 1.174.99 1.63 1.63l.392.587.685-.163 2.87-.652.521 1.304-2.51 1.5-.555.36.065.651c.098.873.098 1.606 0 2.479l-.065.652.554.359 2.479 1.532-.522 1.24-2.903-.718-.717-.163-.391.587a6.881 6.881 0 0 1-1.63 1.63l-.555.392.13.685.652 3.098-1.304.489-1.5-2.478-.359-.555-.652.065c-.872.098-1.606.098-2.478 0l-.653-.065-.326.522-1.598 2.413-1.337-.587.62-2.804.163-.653-.554-.424a6.881 6.881 0 0 1-1.63-1.63l-.392-.554-.685.13-2.805.587-.489-1.304 2.479-1.533.587-.359-.098-.652a10.501 10.501 0 0 1 0-2.478l.098-.62-.555-.359-2.413-1.598.555-1.337 2.837.652.62.13.39-.488a32.65 32.65 0 0 1 1.729-1.826l.391-.392-.098-.522-.587-2.804 1.305-.522zm3.783 5.707c-2.87 0-5.218 2.348-5.218 5.218s2.348 5.217 5.218 5.217 5.217-2.348 5.217-5.217c0-2.87-2.348-5.218-5.217-5.218zm0 2.087c1.74 0 3.13 1.39 3.13 3.13 0 1.741-1.39 3.131-3.13 3.131s-3.13-1.39-3.13-3.13 1.39-3.13 3.13-3.13zm-22.404 8.348l-.13.88-.522 3.392c-.567.18-1.113.44-1.63.718l-3.588-2.609-3.652 3.652.49.718 1.988 2.87a13.47 13.47 0 0 0-.717 1.663l-3.424.62-.848.162v5.088l.848.163 3.424.62a9.85 9.85 0 0 0 .717 1.63l-2.054 2.772-.554.717 3.652 3.652.717-.489 2.87-1.989c.559.281 1.117.53 1.663.717l.522 3.392.13.88h5.12l.13-.847.653-3.425c.567-.179 1.113-.44 1.63-.717l3.588 2.609 3.652-3.653-.49-.717-2.086-2.902c.273-.55.534-1.093.717-1.63l3.522-.62.848-.163v-5.12l-4.402-.653a9.713 9.713 0 0 0-.685-1.63l2.087-2.87.489-.717-.587-.62-2.413-2.51-.62-.653-.75.522-2.87 2.087c-.55-.273-1.092-.534-1.63-.718l-.522-3.391-.13-.88h-5.153zm1.794 2.087h1.565l.587 3.718.587.196c.938.314 1.814.607 2.511 1.043l.587.359.554-.391 2.61-1.892L40 41.078l-1.891 2.64-.424.555.391.587c.47.75.836 1.619 1.011 2.413l.163.685.685.098 3.196.49v1.597l-3.196.555-.62.097-.195.587c-.314.938-.608 1.814-1.044 2.511l-.391.587.424.555L40 57.676l-1.174 1.142-2.609-1.892-.554-.391-.587.359c-.75.468-1.618.835-2.413 1.01l-.652.164-.13.684-.555 3.098h-1.598l-.587-3.717-.587-.196c-.938-.314-1.814-.607-2.511-1.043l-.587-.36-.554.392-2.642 1.794-1.141-1.142 1.859-2.51.456-.588-.391-.587c-.469-.75-.836-1.585-1.011-2.38l-.163-.685-.685-.13-3.098-.555v-1.63l3.098-.555.62-.13.195-.555c.314-.937.608-1.814 1.044-2.51l.359-.588-.392-.554-1.793-2.641 1.174-1.142L25 41.73l.555.391.587-.359c.75-.469 1.618-.835 2.413-1.01l.685-.164.098-.685.489-3.098zm.782 7.305c-2.865 0-5.217 2.352-5.217 5.218s2.352 5.218 5.217 5.218c2.866 0 5.218-2.352 5.218-5.218s-2.352-5.218-5.218-5.218zm0 2.087a3.131 3.131 0 1 1-.001 6.263 3.131 3.131 0 0 1 .001-6.263z"/>
    </g>
</svg>
