<svg xmlns="http://www.w3.org/2000/svg" width="79" height="79" viewBox="0 0 79 79">
    <g fill="none" fill-rule="evenodd">
        <path fill="#FFF" fill-rule="nonzero" d="M16.76 17a.809.809 0 0 0-.085.029c-.03.007-.058.018-.087.028-.028.008-.057.018-.086.03l-.029.028a.429.429 0 0 0-.057.029l-.029.028a.429.429 0 0 0-.057.03v.028a.429.429 0 0 0-.058.029l-.029.028-.028.03a.429.429 0 0 0-.029.057l-.029.028v.03a.435.435 0 0 0-.057.057v.028l-.029.03v.057l-.029.028v.058l-.029.029v.057a.934.934 0 0 0 0 .316v31.106a.91.91 0 0 0 .23.603l10.982 12.793a.84.84 0 0 0 .173.201h.028a.87.87 0 0 0 .115.115h.03c.017.011.039.022.057.029h.028c.018.01.04.022.058.029h.029a.96.96 0 0 0 .172.029H61.09c.507 0 .92-.414.92-.92v-33.06-.058-.029-.057-.029a.429.429 0 0 0-.029-.057v-.03c-.007-.028-.018-.057-.028-.085v-.03l-.03-.028v-.029a1.143 1.143 0 0 0-.057-.115.429.429 0 0 0-.028-.057.435.435 0 0 0-.058-.058.435.435 0 0 0-.057-.057l-.03-.029-.057-.057a.873.873 0 0 0-.115-.087L48.815 17.23a.91.91 0 0 0-.604-.23H16.761zm2.416 1.84h28.69l10.752 9.2H28.375l-9.2-9.2zm-1.323 1.322l9.2 9.2v30.242l-9.2-10.751v-28.69zm11.04 9.717H60.17v31.278H28.893V29.879z"/>
        <circle cx="39.5" cy="39.5" r="38.5" stroke="#FFF" stroke-width="2"/>
    </g>
</svg>
